#!OML:ASF E:\Steps\Project 1\Capture day 1\Session 2\Subject.ASF
:FULLY-SPECIFIED
:DEGREES
126
root 9.3052 16.3494 10.3409 -152.114 -2.66856 180.179
lowerback -27.4166 -1.17995 -5.8298
upperback -2.63848 -0.45599 -0.623842
thorax 12.3176 -0.812687 2.41311
lowerneck 0.2364 0.0890116 -4.21895
upperneck 8.94887 -0.734076 6.96219
head 2.90168 -0.469692 3.02265
rclavicle 7.65321e-015 2.62396e-014
rhumerus -36.3416 -15.6779 -81.3327
rradius 32.012
rwrist -0.568431
rhand -9.12393 -53.9182
rfingers 7.12502
rthumb 16.8271 -83.2091
lclavicle 7.65321e-015 2.62396e-014
lhumerus -30.997 4.79901 80.0402
lradius 22.2943
lwrist -6.77948
lhand -19.7626 -11.6953
lfingers 7.12502
lthumb 6.569 18.1828
rfemur -27.6021 9.83915 17.6396
rtibia 10.9146
rfoot -20.7216 -5.95335
rtoes -28.7175
lfemur -29.3774 -10.8677 -16.0097
ltibia 14.114
lfoot -10.6555 2.76427
ltoes -36.9586
127
root 9.30917 16.3509 10.3426 -152.021 -2.64212 180.137
lowerback -27.4141 -1.22623 -5.92032
upperback -2.62283 -0.48938 -0.598506
thorax 12.338 -0.833226 2.4818
lowerneck 0.238048 0.0995218 -4.27122
upperneck 8.94751 -0.718711 6.9716
head 2.90063 -0.463323 3.03613
rclavicle -9.74045e-015 -6.36111e-015
rhumerus -36.3126 -15.4991 -81.3801
rradius 32.1894
rwrist -0.628855
rhand -8.9917 -52.3582
rfingers 7.12502
rthumb 16.9544 -81.6382
lclavicle -9.74045e-015 -6.36111e-015
lhumerus -30.8258 4.95072 80.0329
lradius 22.0976
lwrist -6.94664
lhand -19.6657 -11.7377
lfingers 7.12502
lthumb 6.6625 18.1375
rfemur -27.7336 9.88685 17.5622
rtibia 10.9282
rfoot -20.6968 -5.9524
rtoes -28.2796
lfemur -29.526 -10.7608 -16.0436
ltibia 14.1852
lfoot -10.7095 2.72259
ltoes -37.4336
128
root 9.31012 16.3517 10.3402 -151.982 -2.57958 180.062
lowerback -27.4295 -1.30508 -6.01351
upperback -2.57126 -0.55821 -0.559747
thorax 12.4137 -0.870401 2.5539
lowerneck 0.210615 0.133299 -4.37847
upperneck 8.95184 -0.667894 6.97775
head 2.90517 -0.440044 3.06005
rclavicle 2.78299e-015 4.77083e-015
rhumerus -36.2329 -15.2337 -81.4268
rradius 32.3226
rwrist -0.667308
rhand -8.95229 -51.7697
rfingers 7.12502
rthumb 16.9924 -81.0465
lclavicle 2.78299e-015 4.77083e-015
lhumerus -30.824 5.12658 80.0731
lradius 22.1138
lwrist -7.00544
lhand -19.7035 -11.9357
lfingers 7.12502
lthumb 6.62604 17.9406
rfemur -27.7662 9.9145 17.439
rtibia 10.8997
rfoot -20.6994 -5.898
rtoes -27.9861
lfemur -29.5298 -10.7332 -16.1486
ltibia 14.1404
lfoot -10.7149 2.76481
ltoes -37.8733
129
root 9.31071 16.3521 10.3364 -151.963 -2.53892 180.06
lowerback -27.4418 -1.36057 -6.00504
upperback -2.52656 -0.627324 -0.52956
thorax 12.4795 -0.901926 2.55754
lowerneck 0.180386 0.16005 -4.43306
upperneck 8.95508 -0.628052 6.978
head 2.90987 -0.420917 3.07171
rclavicle -3.27995e-015 4.13472e-014
rhumerus -36.02 -15.0732 -81.489
rradius 32.1854
rwrist -0.701455
rhand -8.93144 -52.3927
rfingers 7.12502
rthumb 17.0124 -81.6677
lclavicle -3.27995e-015 4.13472e-014
lhumerus -30.8544 5.37132 80.0069
lradius 22.1325
lwrist -7.07067
lhand -19.6948 -12.0831
lfingers 7.12502
lthumb 6.63449 17.793
rfemur -27.7668 9.88616 17.4368
rtibia 10.8868
rfoot -20.7175 -5.82833
rtoes -28.1274
lfemur -29.5098 -10.7165 -16.1592
ltibia 14.1154
lfoot -10.6966 2.78758
ltoes -37.9967
130
root 9.31291 16.3513 10.3353 -151.859 -2.48631 180.059
lowerback -27.4435 -1.36913 -6.0301
upperback -2.55362 -0.637127 -0.531797
thorax 12.4495 -0.908709 2.56564
lowerneck 0.226355 0.160571 -4.37941
upperneck 8.94344 -0.631086 6.96835
head 2.89678 -0.422678 3.05746
rclavicle 1.98785e-016 -2.38542e-015
rhumerus -35.8732 -15.1204 -81.4903
rradius 31.9167
rwrist -0.660719
rhand -8.95666 -52.6121
rfingers 7.12502
rthumb 16.9882 -81.8892
lclavicle 1.98785e-016 -2.38542e-015
lhumerus -30.8707 5.3497 79.9471
lradius 22.1067
lwrist -7.09988
lhand -19.611 -11.8162
lfingers 7.12502
lthumb 6.71532 18.0574
rfemur -27.9098 9.87747 17.4175
rtibia 10.9394
rfoot -20.7371 -5.72218
rtoes -28.0093
lfemur -29.6045 -10.6346 -16.1521
ltibia 14.1094
lfoot -10.6531 2.71368
ltoes -37.6704
131
root 9.31373 16.349 10.3333 -151.726 -2.2881 179.989
lowerback -27.4739 -1.32714 -6.12292
upperback -2.58766 -0.557644 -0.572342
thorax 12.4179 -0.878743 2.60176
lowerneck 0.300997 0.160795 -4.37103
upperneck 8.92754 -0.635109 6.97088
head 2.87763 -0.426679 3.05571
rclavicle -6.95746e-016 -2.70347e-014
rhumerus -35.8829 -15.2433 -81.4139
rradius 31.8561
rwrist -0.498646
rhand -8.89328 -51.3427
rfingers 7.12502
rthumb 17.0492 -80.6146
lclavicle -6.95746e-016 -2.70347e-014
lhumerus -30.8998 4.97382 80.0417
lradius 22.2197
lwrist -6.82216
lhand -19.6422 -11.4017
lfingers 7.12502
lthumb 6.68519 18.4728
rfemur -28.1172 9.8749 17.2775
rtibia 11.0176
rfoot -20.7511 -5.49734
rtoes -27.6655
lfemur -29.6771 -10.5928 -16.2525
ltibia 14.0313
lfoot -10.6064 2.78362
ltoes -37.1292
132
root 9.31451 16.3493 10.3302 -151.699 -2.12215 179.937
lowerback -27.4439 -1.29159 -6.16645
upperback -2.57058 -0.491797 -0.620691
thorax 12.4156 -0.84919 2.59613
lowerneck 0.364172 0.164852 -4.4026
upperneck 8.91719 -0.633356 6.98481
head 2.86274 -0.428414 3.06583
rclavicle 9.93923e-017 3.97569e-015
rhumerus -35.8956 -15.2126 -81.44
rradius 31.9906
rwrist -0.522291
rhand -8.78853 -50.6521
rfingers 7.12502
rthumb 17.15 -79.9153
lclavicle 9.93923e-017 3.97569e-015
lhumerus -30.9506 4.6417 80.1158
lradius 22.3935
lwrist -6.53967
lhand -19.9255 -11.2292
lfingers 7.12502
lthumb 6.41173 18.6537
rfemur -28.1604 9.82931 17.2139
rtibia 11.031
rfoot -20.7341 -5.37608
rtoes -27.6751
lfemur -29.631 -10.568 -16.3487
ltibia 13.9585
lfoot -10.6689 2.88148
ltoes -37.099
133
root 9.31664 16.3506 10.3296 -151.648 -2.07789 179.936
lowerback -27.4423 -1.29729 -6.19917
upperback -2.51249 -0.475278 -0.642798
thorax 12.4817 -0.8419 2.59564
lowerneck 0.348995 0.156949 -4.34476
upperneck 8.91556 -0.643868 6.97151
head 2.8649 -0.43179 3.05012
rclavicle 1.2921e-015 -2.8625e-014
rhumerus -35.7953 -15.2096 -81.5264
rradius 32.077
rwrist -0.593477
rhand -8.96999 -51.4901
rfingers 7.12502
rthumb 16.9753 -80.7683
lclavicle 1.2921e-015 -2.8625e-014
lhumerus -30.8588 4.44154 80.1287
lradius 22.4389
lwrist -6.43068
lhand -20.0617 -11.3913
lfingers 7.12502
lthumb 6.28026 18.4956
rfemur -28.2072 9.77872 17.2249
rtibia 11.0064
rfoot -20.7397 -5.37354
rtoes -28.0629
lfemur -29.6882 -10.4885 -16.3555
ltibia 13.9596
lfoot -10.7181 2.84815
ltoes -37.3227
134
root 9.31925 16.3509 10.3292 -151.554 -2.03196 179.939
lowerback -27.4057 -1.28516 -6.23568
upperback -2.48828 -0.442624 -0.666762
thorax 12.4876 -0.82705 2.6017
lowerneck 0.231072 0.12309 -4.24653
upperneck 8.92904 -0.684994 6.9537
head 2.89289 -0.446093 3.02572
rclavicle 4.96962e-016 1.43125e-014
rhumerus -35.7411 -15.2899 -81.5692
rradius 32.1256
rwrist -0.566011
rhand -9.19718 -52.0202
rfingers 7.12502
rthumb 16.7566 -81.3171
lclavicle 4.96962e-016 1.43125e-014
lhumerus -30.6965 4.18396 80.1478
lradius 22.4825
lwrist -6.18607
lhand -19.8706 -11.5998
lfingers 7.12502
lthumb 6.46473 18.2815
rfemur -28.322 9.78627 17.2043
rtibia 11.0003
rfoot -20.7587 -5.35977
rtoes -28.5493
lfemur -29.8294 -10.4691 -16.3223
ltibia 14.0219
lfoot -10.7003 2.87667
ltoes -36.9964
135
root 9.32221 16.3521 10.3273 -151.51 -2.01956 180.057
lowerback -27.2481 -1.21744 -6.09484
upperback -2.56157 -0.414857 -0.694071
thorax 12.3149 -0.802825 2.50159
lowerneck 0.227852 0.09162 -4.18596
upperneck 8.93421 -0.731252 6.95734
head 2.89765 -0.467549 3.01459
rclavicle 3.97569e-016 9.54166e-015
rhumerus -35.9802 -15.1609 -81.6693
rradius 32.3774
rwrist -0.765003
rhand -9.15665 -52.1319
rfingers 7.12502
rthumb 16.7956 -81.4254
lclavicle 3.97569e-016 9.54166e-015
lhumerus -30.8123 3.92471 80.0937
lradius 22.6741
lwrist -6.0486
lhand -19.8378 -11.5267
lfingers 7.12502
lthumb 6.49642 18.3536
rfemur -28.3822 9.88626 17.3294
rtibia 11.0069
rfoot -20.7056 -5.3893
rtoes -28.4528
lfemur -29.897 -10.4455 -16.1389
ltibia 14.0634
lfoot -10.7157 2.89247
ltoes -36.159
136
root 9.32411 16.3527 10.3233 -151.527 -2.0091 180.178
lowerback -27.1619 -1.16836 -5.93928
upperback -2.57697 -0.401386 -0.709891
thorax 12.2497 -0.785609 2.40004
lowerneck 0.29777 0.094317 -4.18264
upperneck 8.92442 -0.732439 6.96331
head 2.88137 -0.470286 3.01523
rclavicle -1.2921e-015 1.27222e-014
rhumerus -36.1838 -14.9386 -81.7788
rradius 32.654
rwrist -0.926755
rhand -9.01313 -52.2345
rfingers 7.12502
rthumb 16.9338 -81.5163
lclavicle -1.2921e-015 1.27222e-014
lhumerus -30.9333 3.75844 80.0463
lradius 22.7694
lwrist -6.20379
lhand -20.0972 -11.5082
lfingers 7.12502
lthumb 6.24596 18.3797
rfemur -28.3517 9.9478 17.4897
rtibia 10.9951
rfoot -20.6612 -5.321
rtoes -27.9236
lfemur -29.8491 -10.3817 -15.9907
ltibia 14.0209
lfoot -10.7421 2.86095
ltoes -35.4692
137
root 9.32537 16.353 10.3182 -151.549 -1.96686 180.195
lowerback -27.1354 -1.17907 -5.91246
upperback -2.5029 -0.409266 -0.705597
thorax 12.3234 -0.785468 2.38687
lowerneck 0.235406 0.099448 -4.2533
upperneck 8.93454 -0.720356 6.97359
head 2.89663 -0.463983 3.03317
rclavicle 1.04362e-014 -2.06736e-014
rhumerus -36.0661 -14.5682 -81.9171
rradius 32.7322
rwrist -1.02643
rhand -8.84562 -51.4321
rfingers 7.12502
rthumb 17.095 -80.7
lclavicle 1.04362e-014 -2.06736e-014
lhumerus -30.8863 3.66884 80.0777
lradius 22.8193
lwrist -6.29953
lhand -20.2462 -11.708
lfingers 7.12502
lthumb 6.10211 18.1841
rfemur -28.2989 9.96758 17.5201
rtibia 10.9651
rfoot -20.6976 -5.21666
rtoes -27.9694
lfemur -29.777 -10.3509 -15.9912
ltibia 13.9769
lfoot -10.7697 2.89684
ltoes -35.5995
138
root 9.32802 16.355 10.3122 -151.596 -1.96395 180.177
lowerback -27.0434 -1.21789 -5.93786
upperback -2.43651 -0.442254 -0.707817
thorax 12.3555 -0.798032 2.38769
lowerneck 0.17603 0.0958121 -4.30527
upperneck 8.94861 -0.722252 6.98856
head 2.91346 -0.464337 3.04895
rclavicle -1.98785e-016 1.03368e-014
rhumerus -35.9285 -14.0891 -82.1082
rradius 32.7264
rwrist -1.35754
rhand -8.75274 -50.7897
rfingers 7.12502
rthumb 17.1844 -80.0499
lclavicle -1.98785e-016 1.03368e-014
lhumerus -30.9687 3.54873 80.0801
lradius 23.0974
lwrist -6.15523
lhand -19.9031 -11.8619
lfingers 7.12502
lthumb 6.43336 18.0204
rfemur -28.1754 10.082 17.4877
rtibia 10.8782
rfoot -20.7054 -5.32342
rtoes -28.0724
lfemur -29.6343 -10.3088 -16.0288
ltibia 13.8923
lfoot -10.7744 2.87786
ltoes -35.9982
139
root 9.33136 16.3562 10.3057 -151.669 -2.00379 180.13
lowerback -26.9493 -1.26482 -6.01237
upperback -2.37725 -0.47261 -0.713842
thorax 12.3781 -0.812143 2.41342
lowerneck 0.248419 0.109936 -4.33141
upperneck 8.94241 -0.70833 7.00341
head 2.89738 -0.460308 3.05862
rclavicle 5.56597e-015 2.3059e-014
rhumerus -35.9648 -13.582 -82.2716
rradius 32.8352
rwrist -1.89082
rhand -8.89029 -51.0768
rfingers 7.12502
rthumb 17.052 -80.3484
lclavicle 5.56597e-015 2.3059e-014
lhumerus -31.136 3.33734 80.1038
lradius 23.4562
lwrist -6.00613
lhand -19.5455 -11.9255
lfingers 7.12502
lthumb 6.7786 17.9459
rfemur -27.9803 10.1279 17.4568
rtibia 10.7266
rfoot -20.6427 -5.49555
rtoes -27.9151
lfemur -29.4538 -10.2881 -16.0855
ltibia 13.7421
lfoot -10.7159 2.74633
ltoes -35.8575
